<svg id="Layer_1" data-name="Layer 1" xmlns="http://www.w3.org/2000/svg" viewBox="0 0 488 439"><defs><style>.cls-1{fill:#fff;}</style></defs><title>addPlayer</title><path class="cls-1" d="M8,94.51c0,.7,0,1.39.07,2.08,0,.05,0,.09,0,.14q.06,1.14.15,2.28v.11c.05.67.11,1.34.18,2l0,.28c.06.67.14,1.33.22,2,0,.21.05.41.08.62.07.57.15,1.13.24,1.7,0,.25.07.49.11.74.1.61.2,1.22.31,1.83s.21,1.14.32,1.71c.05.28.11.57.17.85.14.65.28,1.29.43,1.93s.35,1.48.54,2.22.38,1.45.58,2.17c0,0,0,0,0,0,.21.73.42,1.45.65,2.17.45,1.47.94,2.92,1.47,4.36l.66,1.74c.07.17.14.34.2.51l.33.81.19.45.15.36c.09.23.19.45.29.68s.09.23.15.34c.13.33.28.65.42,1l.21.45,0,.07,0,0,.05.1,0,0a1,1,0,0,0,0,.1l0,.07c0,.1.09.2.13.29l.34.72.23.48q.46,1,1,1.92c.34.66.68,1.32,1,2s.62,1.14,1,1.7l.44.77c.18.3.36.6.53.9l.5.81.18.29,0,0c.25.41.5.81.76,1.21l.58.89a.76.76,0,0,0,.08.11c.16.25.32.5.49.75s.33.49.5.73l0,.06c.14.21.29.43.45.64l0,0,.05.07c.09.13.18.27.28.4.31.45.64.9,1,1.34,0,.07.1.14.15.21l.28.38c.41.54.82,1.08,1.24,1.61l.24.3c.28.36.56.71.85,1.06l0,0,.66.79c.19.24.39.47.59.7.47.56,1,1.11,1.45,1.66a.3.3,0,0,0,.08.08c.45.52.92,1,1.4,1.52s.71.76,1.09,1.14.89.92,1.35,1.37l.22.22c.54.53,1.09,1.06,1.65,1.57.15.16.32.3.48.45l0,0,.95.86.28.25c.27.25.54.48.82.72l.26.22.87.74.89.74c.73.6,1.47,1.19,2.23,1.76,0,0,0,0,0,0,.58.45,1.16.89,1.76,1.32.27.21.55.41.83.6l.08.06q1,.69,1.95,1.35c.74.5,1.5,1,2.26,1.47l.14.09.17.11c.69.43,1.39.86,2.1,1.27l.19.12.66.39c.45.26.91.51,1.37.76l.1.05c.27.16.53.3.81.44l.21.12c.39.21.78.42,1.18.62l.92.47,1,.49c.33.17.67.33,1,.48,2.23,1.06,4.52,2,6.85,2.9h0l1,.38,1.33.47,1.26.42.09,0a93.75,93.75,0,0,1-1.86-11.2,97.5,97.5,0,0,1,.64-25.37,59,59,0,1,1,80.71-80.71,97.22,97.22,0,0,1,36.57,1.22.18.18,0,0,1,0-.07,1.59,1.59,0,0,0-.07-.2c-.16-.48-.32-1-.49-1.45s-.4-1.13-.61-1.7c-.35-.94-.71-1.87-1.09-2.79l-.06-.15a2.26,2.26,0,0,0-.1-.23c-.13-.32-.26-.64-.4-1-.28-.65-.56-1.3-.86-1.94s-.55-1.2-.83-1.79a2,2,0,0,1-.1-.21c-.3-.6-.59-1.2-.9-1.79s-.68-1.32-1-2l-.74-1.33s0,0,0,0l0-.09,0-.07-.53-.92,0-.07,0,0c-.33-.58-.68-1.15-1-1.72-.62-1-1.26-2-1.92-3l-.25-.36q-.6-.9-1.23-1.77c-.42-.6-.86-1.2-1.3-1.79s-.89-1.18-1.35-1.76-.76-1-1.14-1.43l-.45-.53c-.4-.48-.8-1-1.22-1.44s-1-1.11-1.46-1.65q-1.48-1.63-3-3.2c-.52-.52-1.05-1-1.58-1.54s-.82-.78-1.24-1.16l-.19-.17a2.46,2.46,0,0,0-.29-.27l-1.55-1.37c-.55-.49-1.12-1-1.68-1.43s-1.09-.89-1.64-1.32l-.08-.06-.54-.42-.53-.4,0,0-.13-.1-.16-.12c-.17-.14-.34-.26-.52-.39l-.43-.32c-.4-.3-.8-.58-1.2-.87q-1.86-1.35-3.8-2.56c-.47-.31-.95-.61-1.44-.91a92.74,92.74,0,0,0-8.44-4.59l-1.71-.79c-.76-.35-1.53-.68-2.31-1l-1.67-.68q-2.31-.92-4.68-1.71l-1.85-.59-.93-.28-.32-.09h0l-.21-.06-.27-.08h0l-.07,0-1.09-.31L123,2.9l-.32-.08c-.63-.16-1.26-.32-1.9-.46-.45-.11-.91-.21-1.37-.3l-.19,0L119,2l-.13,0-.79-.16h0c-.59-.12-1.19-.24-1.79-.34l-1-.17-1.16-.19-.23,0L112.17.8,111.3.69c-.63-.08-1.26-.15-1.9-.21s-1.54-.15-2.31-.21l-.27,0-1.59-.1H105L103.91.09c-.51,0-1,0-1.54-.06-.78,0-1.58,0-2.37,0A92,92,0,0,0,8,92c0,.75,0,1.5,0,2.24A2.44,2.44,0,0,0,8,94.51Z"/><path class="cls-1" d="M229.48,237.6l-6.93-.84A96.62,96.62,0,0,1,166,255h-.79a96.4,96.4,0,0,1-55.76-18.23l-6.93.84C81.6,240.2,66,256.25,66,275.26v62.95H34.79V209.31c.25-.7,2.12-2.71,6-3.19,14-1.75,27.19-3,39-3.69a95.37,95.37,0,0,1-6.92-17.3,96.33,96.33,0,0,1-29.42-14.37l-6.93.84C15.6,174.2,0,190.25,0,209.26V373H66v66H266V275.26C266,256.25,250.4,240.2,229.48,237.6Zm1.73,166.61H100.79V275.31c.25-.7,2.12-2.71,6-3.19,22.38-2.79,42.54-4.29,58.39-4.33H166c9.81,0,21.31.57,34,1.66,8,.69,16.4,1.58,25.18,2.68,3.91.48,5.78,2.49,6,3.19Z"/><path class="cls-1" d="M184.48,67.86l-.11,0c-.62-.13-1.25-.25-1.88-.36l-.17,0-.4-.07h0l-.27-.05-1.18-.2-.22,0c-.18,0-.37-.06-.55-.09l-1.92-.27h0c-.77-.1-1.54-.19-2.32-.26s-1.54-.15-2.32-.21-1.56-.11-2.35-.15L169,66a1.61,1.61,0,0,0-.22,0l-.65,0c-.7,0-1.4,0-2.11,0s-1.59,0-2.37,0-1.58,0-2.36.09-1.57.09-2.35.15l-.27,0c-.69,0-1.37.12-2.05.19s-1.12.12-1.68.19l-1.55.2-.23,0h-.08l-.29,0-1.3.2-1.89.32c-.63.11-1.25.23-1.88.36-.42.08-.85.17-1.27.27-.86.18-1.71.38-2.56.59-.57.14-1.14.28-1.71.44l-1.67.46c-1.26.36-2.5.75-3.74,1.16l-1.77.62c-.59.2-1.18.42-1.75.65s-1.17.45-1.74.68-1.15.47-1.72.72c-1,.41-2,.86-2.92,1.31l-.47.22-1.66.82c-.44.22-.88.44-1.31.68s-.7.36-1,.55l-.52.28-.52.29-.45.25c-.44.24-.88.49-1.31.75l-.3.17c-1,.61-2,1.23-3,1.87-.37.23-.74.47-1.1.72l0,0-.35.23-.34.23-.28.19c-.47.31-.93.64-1.39,1s-1.2.86-1.79,1.3-1.18.89-1.76,1.35L107.54,87h0l-.47.39-1.26,1.08h0c-.49.43-1,.86-1.46,1.3A3.91,3.91,0,0,0,104,90l-.66.61-.55.52q-.95.89-1.86,1.8t-1.8,1.86c-.17.18-.35.36-.52.55L98,96a3.93,3.93,0,0,0-.28.31c-.44.48-.87,1-1.3,1.46h0l-1.08,1.26-.39.47h0c-.45.56-.89,1.1-1.33,1.66s-.91,1.17-1.35,1.76-.88,1.19-1.3,1.79-.66.92-1,1.39c-.06.09-.13.18-.19.28l-.23.34-.23.35,0,0c-.25.36-.49.73-.72,1.1-.64,1-1.26,2-1.87,3-.06.1-.12.2-.17.3-.26.43-.51.87-.75,1.31-.09.15-.17.3-.25.45l-.29.52c-.1.17-.19.35-.28.52-.19.34-.37.69-.55,1s-.46.87-.68,1.31-.55,1.1-.82,1.66c-.07.16-.15.31-.22.47-.45,1-.9,1.94-1.31,2.92-.25.57-.49,1.14-.72,1.72s-.46,1.15-.68,1.74-.44,1.16-.65,1.75-.42,1.18-.62,1.77c-.41,1.24-.8,2.48-1.16,3.74-.16.56-.31,1.11-.46,1.67s-.3,1.14-.44,1.71c-.21.85-.41,1.7-.59,2.56-.1.42-.19.85-.27,1.27-.13.63-.25,1.25-.36,1.88s-.22,1.26-.32,1.89-.19,1.26-.28,1.9-.14,1-.2,1.55-.14,1.12-.19,1.68-.14,1.36-.19,2c0,.09,0,.18,0,.27-.06.78-.11,1.56-.15,2.35s-.07,1.57-.09,2.36,0,1.58,0,2.37c0,.58,0,1.15,0,1.72v.1c0,.51,0,1,.05,1.5a2.26,2.26,0,0,0,0,.26c0,.32,0,.64,0,1l0,.46c0,.77.09,1.54.15,2.3,0,.26,0,.51.07.76q.07.93.18,1.86c.06.56.12,1.12.19,1.68s.15,1.12.23,1.67.14,1,.22,1.44.17,1,.26,1.58.21,1.18.33,1.76c0,.06,0,.12,0,.18.06.31.12.62.19.93.11.54.23,1.08.36,1.61v0c.17.74.35,1.48.54,2.21a.29.29,0,0,0,0,.09q.27,1.05.57,2.1c.2.69.4,1.37.61,2,.14.46.29.91.44,1.37,0,0,0,0,0,.06s0,0,0,0c.21.65.43,1.29.66,1.93s.48,1.34.73,2,.51,1.33.78,2c.13.33.26.66.4,1l.42,1c.12.3.26.59.39.88s.27.6.4.89l.21.45c.25.54.51,1.08.77,1.62s.61,1.22.92,1.83.67,1.28,1,1.91l.13.23c.16.29.32.58.49.87s.33.58.49.87l0,.09c.24.41.48.82.73,1.23l.35.57c.32.53.65,1.06,1,1.58s.8,1.24,1.21,1.85.84,1.22,1.27,1.82.86,1.2,1.3,1.79.89,1.18,1.35,1.76q.48.61,1,1.23c.08.11.18.22.27.33l.27.33c.42.51.85,1,1.28,1.51s1,1.11,1.46,1.65,1,1.09,1.51,1.62l.46.48.31.31.17.17c.32.34.65.67,1,1,.55.55,1.12,1.1,1.69,1.63a4.61,4.61,0,0,0,.4.37l.06,0c.32.31.65.61,1,.9a1.29,1.29,0,0,0,.17.16l0,0c.37.34.74.66,1.11,1,0,0,0,0,0,0,.34.29.68.59,1,.87l.76.64.47.38.9.73.66.51c.21.17.42.34.64.49.51.4,1,.79,1.55,1.16l.94.68c.62.44,1.25.88,1.89,1.31s1.54,1,2.32,1.51l.14.09.23.14,1.2.74c.41.25.81.49,1.22.72s.71.42,1.08.62c.08.06.17.1.25.15l.35.19.06,0,.65.36.64.34.29.16.38.2c.7.37,1.4.72,2.11,1.07l.95.46c1,.46,1.95.91,2.94,1.33l1.43.61c.24.11.48.21.73.3l.73.29c.48.2,1,.38,1.46.56l.89.33.18.07.2.07.52.18h0l.57.2.56.19.43.14c.48.17,1,.32,1.46.47s1.23.38,1.86.56l.67.19c.56.16,1.12.31,1.69.45h0l.26.07c.65.17,1.31.33,2,.48l.1,0h.05c.72.17,1.45.33,2.18.48s1.5.3,2.26.43,1.31.23,2,.33h0l.75.11,1.35.19,1,.13.3,0q1.66.2,3.36.33l1.12.08.79.05,1.18.07h.09c.29,0,.58,0,.87,0h.08c.86,0,1.72,0,2.59.06H166c.77,0,1.54,0,2.3,0h.1l1.81-.07h.12l1.28-.08,1.34-.08.33,0c.57,0,1.14-.09,1.7-.15l.78-.08q.66-.06,1.32-.15l.16,0,.18,0h.11c.68-.08,1.35-.17,2-.28.43,0,.85-.12,1.27-.19s.8-.13,1.19-.21a4,4,0,0,0,.48-.08h0l1.84-.35.48-.1c.65-.13,1.31-.28,1.95-.43s1.27-.3,1.9-.46l.07,0,.16,0,.25-.06,1.38-.37.28-.08.73-.21c.41-.11.82-.23,1.22-.36s1-.29,1.46-.46l.9-.29c.3-.09.6-.19.89-.3q1-.34,2-.72c.66-.24,1.32-.5,2-.76.49-.19,1-.39,1.46-.6s.8-.33,1.19-.51l1.32-.58,1.62-.75.65-.32c.55-.27,1.1-.54,1.64-.82s1.09-.56,1.63-.86l.22-.12c.53-.28,1.06-.58,1.59-.88s1.21-.69,1.8-1.05,1-.59,1.48-.91l.09,0,.21-.13.14-.09c.76-.48,1.52-1,2.26-1.47s1.31-.89,1.95-1.35l.08-.06c.28-.19.56-.39.83-.6.6-.43,1.18-.87,1.76-1.32,0,0,0,0,0,0,.76-.57,1.5-1.16,2.23-1.76l.89-.74.87-.74.26-.22c.28-.24.55-.47.82-.72l.28-.25.95-.86,0,0c.16-.15.33-.29.48-.45.56-.51,1.11-1,1.65-1.57l.22-.22c.46-.45.92-.91,1.35-1.37s.75-.76,1.09-1.14.95-1,1.4-1.52a.3.3,0,0,0,.08-.08c.49-.55,1-1.1,1.45-1.66.2-.23.4-.46.59-.7l.66-.79,0,0c.29-.35.57-.7.85-1.06l.24-.3c.42-.53.83-1.07,1.24-1.61l.28-.38c0-.07.11-.14.15-.21.33-.44.66-.89,1-1.34.1-.13.19-.27.28-.4l.05-.07,0,0c.16-.21.31-.43.45-.64l0-.06c.17-.24.34-.48.5-.73s.33-.5.49-.75a.76.76,0,0,0,.08-.11l.58-.89c.26-.4.51-.8.76-1.21l0,0,.18-.29.5-.81c.17-.3.35-.6.53-.9l.44-.77c.33-.56.64-1.13,1-1.7s.7-1.31,1-2,.65-1.28,1-1.92l.23-.48.34-.72c0-.09.09-.19.13-.29l0-.07a1,1,0,0,0,0-.1l0,0,.05-.1,0,0,0-.07.21-.45c.14-.33.29-.65.42-1,.06-.11.1-.23.15-.34s.2-.45.29-.68c.23-.54.45-1.08.67-1.62.06-.17.13-.34.2-.51l.66-1.74c.53-1.44,1-2.89,1.47-4.36.23-.72.44-1.44.65-2.17,0,0,0,0,0,0,.2-.72.4-1.44.58-2.17s.37-1.47.54-2.22.29-1.28.43-1.93c.06-.28.12-.57.17-.85.11-.57.22-1.14.32-1.71s.21-1.22.31-1.83c0-.25.08-.49.11-.74.09-.57.17-1.13.24-1.7,0-.21.06-.41.08-.62.08-.66.16-1.32.22-2l0-.28c.07-.66.13-1.33.18-2V165q.09-1.14.15-2.28s0-.09,0-.14c0-.69.06-1.38.07-2.08a2.44,2.44,0,0,0,0-.27c0-.74,0-1.49,0-2.24,0-1.66,0-3.32-.13-5q0-.93-.12-1.86c0-.09,0-.18,0-.27-.06-.77-.13-1.55-.21-2.31s-.13-1.27-.21-1.9c0-.29-.07-.58-.11-.87-.07-.57-.16-1.15-.24-1.72,0-.08,0-.16,0-.23-.06-.39-.12-.77-.19-1.16s-.11-.67-.17-1c-.1-.6-.22-1.2-.34-1.79a.06.06,0,0,0,0,0c-.05-.27-.1-.52-.16-.79l0-.13a1.16,1.16,0,0,0,0-.18,1.28,1.28,0,0,0,0-.19c-.09-.46-.19-.92-.3-1.37-.14-.64-.3-1.27-.46-1.9,0-.11,0-.21-.08-.32-.12-.48-.25-1-.38-1.43s-.2-.73-.31-1.09c0,0,0,0,0-.07s0,0,0,0a2.75,2.75,0,0,0-.08-.27l-.06-.21c-.12-.43-.25-.85-.38-1.27-.19-.62-.39-1.24-.59-1.85q-.8-2.37-1.71-4.68c-.22-.56-.45-1.11-.68-1.67-.33-.78-.66-1.55-1-2.31-.26-.57-.52-1.14-.79-1.71a92.79,92.79,0,0,0-4.59-8.44c-.3-.49-.6-1-.91-1.44q-1.22-1.93-2.56-3.8c-.33-.47-.67-.94-1-1.4-.05-.08-.11-.15-.17-.23s-.25-.35-.39-.52l-.12-.16a1.13,1.13,0,0,0-.1-.13l0,0-.82-1.07-.06-.08c-.43-.55-.87-1.09-1.32-1.64s-.94-1.13-1.43-1.68-.91-1-1.37-1.55a2.43,2.43,0,0,0-.27-.29l-.17-.19c-.38-.42-.77-.83-1.16-1.24s-1-1.06-1.54-1.58q-1.56-1.56-3.2-3.05c-.54-.49-1.09-1-1.65-1.46s-1-.82-1.44-1.22l-.53-.45c-.48-.38-.95-.77-1.43-1.14s-1.17-.91-1.76-1.35-1.19-.88-1.79-1.3-1.17-.83-1.77-1.23l-.36-.25q-1.48-1-3-1.92c-.57-.35-1.14-.7-1.72-1l-.05,0-.07,0-.92-.53-.07,0-.09,0h0l-1.33-.74c-.65-.36-1.31-.7-2-1s-1.19-.6-1.79-.9l-.21-.1-1.79-.83c-.64-.3-1.29-.58-1.94-.86l-1-.4-.23-.1-.15-.06c-.92-.38-1.85-.74-2.79-1.09l-1.7-.61-1.45-.49-.2-.07-.07,0-1.37-.44-2.05-.61q-1-.3-2.1-.57l-.09,0c-1.46-.38-2.94-.72-4.43-1Zm6.65,36.77c1.6.75,3.17,1.58,4.69,2.48A59,59,0,0,1,166,217h-.79a59.13,59.13,0,0,1-50.1-29.17c-.9-1.52-1.73-3.09-2.48-4.69a58.42,58.42,0,0,1-4.93-16A59.21,59.21,0,0,1,107,158a57.76,57.76,0,0,1,.48-7.48,59.11,59.11,0,0,1,51-51A57.77,57.77,0,0,1,166,99,58.61,58.61,0,0,1,191.13,104.63Z"/><polygon class="cls-1" points="427.87 185.63 427.87 125.5 364.13 125.5 364.13 185.63 304 185.63 304 249.37 364.13 249.37 364.13 309.5 427.87 309.5 427.87 249.37 488 249.37 488 185.63 427.87 185.63"/></svg>