<?xml version="1.0" encoding="utf-8"?>
<!-- Generator: Adobe Illustrator 21.1.0, SVG Export Plug-In . SVG Version: 6.00 Build 0)  -->
<svg version="1.1" id="Layer_1" xmlns="http://www.w3.org/2000/svg" xmlns:xlink="http://www.w3.org/1999/xlink" x="0px" y="0px"
	 viewBox="0 0 90 85" style="enable-background:new 0 0 90 85;" xml:space="preserve">
<style type="text/css">
	.st0{fill:#FFFFFF;}
</style>
<g>
	<path class="st0" d="M12.7,19.8c0,10.9,7.4,19.8,18.3,19.8c10.9,0,18.3-8.9,18.3-19.8S42,0,31.1,0C20.2,0,12.7,8.8,12.7,19.8z"/>
	<path class="st0" d="M48.2,81.3c-0.4-0.3-0.7-0.6-1-1c-5.1-5.1-7.9-11.9-7.9-19.1c0-8.4,3.9-15.9,9.9-20.9
		c-0.9-0.6-1.8-1.2-2.7-1.8c-4,3.7-9.4,5.9-15.4,5.9c-6,0-11.3-2.2-15.4-5.9C6.3,44,0,54,0,65.6c0.2,5,2,10.7,4.8,13.9
		C6.7,81.9,33.6,82.4,48.2,81.3z"/>
	<path class="st0" d="M49.5,44.4c-9.3,9.3-9.3,24.3,0,33.6c9.3,9.3,24.3,9.3,33.6,0c9.3-9.3,9.3-24.3,0-33.6S58.7,35.2,49.5,44.4z
		 M77.7,63.8h-8.9v8.9c0,1.4-1.1,2.6-2.6,2.6c-1.4,0-2.6-1.1-2.6-2.6v-8.9h-8.9c-1.4,0-2.6-1.1-2.6-2.6c0-1.4,1.2-2.6,2.6-2.6h8.9
		l0-8.9c0-1.4,1.1-2.6,2.6-2.6c1.4,0,2.6,1.1,2.6,2.6v8.9h8.9c1.4,0,2.6,1.1,2.6,2.6C80.3,62.7,79.1,63.8,77.7,63.8z"/>
</g>
</svg>
