<?xml version="1.0" encoding="utf-8"?>
<!-- Generator: Adobe Illustrator 21.1.0, SVG Export Plug-In . SVG Version: 6.00 Build 0)  -->
<svg version="1.1" id="Layer_1" xmlns="http://www.w3.org/2000/svg" xmlns:xlink="http://www.w3.org/1999/xlink" x="0px" y="0px"
	 viewBox="0 0 63.6 50" style="enable-background:new 0 0 63.6 50;" xml:space="preserve">
<style type="text/css">
	.st0{fill:none;stroke:#FFFFFF;stroke-width:2.501;stroke-miterlimit:10;}
	.st1{fill:#FFFFFF;}
	.st2{fill:none;stroke:#FFFFFF;stroke-width:2.2353;stroke-miterlimit:10;}
</style>
<title>addPlayer</title>
<g>
	<path class="st0" d="M40,23.2c5.5,12.5,4.1,26.7,4.1,26.7"/>
	<g>
		<circle class="st0" cx="32.3" cy="13.2" r="11.9"/>
		<path class="st0" d="M20.5,49.9c0,0-1.4-14.3,4.1-26.7"/>
		<g>
			<circle class="st1" cx="28.6" cy="11.6" r="2.3"/>
			<circle class="st1" cx="36" cy="11.6" r="2.3"/>
		</g>
		<path class="st1" d="M38.7,15.9c-1,2.6-3.5,4.4-6.4,4.4s-5.4-1.8-6.4-4.4H38.7z"/>
	</g>
	<g>
		<path class="st0" d="M22.6,28.7c-0.5-1.9-2.2-5.2-3-7.1"/>
		<g>
			<path class="st2" d="M21.6,19.6c-1.9,2.6-5.1,4.3-8.6,4.3c-5.9,0-10.7-4.8-10.7-10.7C2.3,7.3,7.1,2.5,13,2.5
				c3.5,0,6.6,1.7,8.6,4.3"/>
			<path class="st0" d="M1.3,49.9c0,0-0.7-16.1,4.7-28.5"/>
			<g>
				<circle class="st1" cx="9.7" cy="11.8" r="2"/>
				<circle class="st1" cx="16.3" cy="11.8" r="2"/>
			</g>
			<path class="st1" d="M18.7,15.6c-0.9,2.3-3.1,3.9-5.7,3.9s-4.8-1.6-5.7-3.9H18.7z"/>
		</g>
	</g>
	<g>
		<line class="st0" x1="55.4" y1="16.8" x2="55.4" y2="33.2"/>
		<line class="st0" x1="47.2" y1="25" x2="63.5" y2="25"/>
	</g>
</g>
</svg>
